<svg id="Layer_2" data-name="Layer 2" xmlns="http://www.w3.org/2000/svg" viewBox="0 0 200 200"><defs><style>.cls-1{fill:#fff;}</style></defs><path class="cls-1" d="M124.91,161.24,119.34,122l29.19-43.32-23-32.35L95.8,60.51V71.29L101.89,81,116,74.82s-13.54,0-14.34-1.65L113,72.64l7.4-7L119,73.84l5.84,2.1c-.24-.07-12.17,5.19-12.17,5.19L92.35,114s-.57,2.72,0,3.34a50.73,50.73,0,0,0,4.47,3.09H92.1l3.64,45.66L91,165.65l-1.62-44.83-5,1.14L107,82.69S88,83.4,76,98.63l-1.88-1L83,89,61,64.94,51.47,78l21,17.66s-.33.45-.44.42-12.17-8-12.17-8,.85,23.41,8.16,31.12c0,0,6.37,7.61,6.37,8.81s-.74,33.18-.74,33.18,25.06,16.13,37.16,12,14.15-12,14.15-12Z"/><polygon class="cls-1" points="98.83 81.1 76.21 51.91 63.66 63.42 84.95 87.8 98.83 81.1"/><polygon class="cls-1" points="93.49 68.88 92.41 58.98 103.1 53.5 92.41 36.67 78.22 49.83 93.49 68.88"/><polygon class="cls-1" points="122.52 44.87 105.66 52.22 95.75 36.15 108.55 26.2 122.52 44.87"/></svg>