<svg id="Layer_2" data-name="Layer 2" xmlns="http://www.w3.org/2000/svg" viewBox="0 0 200 200"><defs><style>.cls-1{fill:#fff;}</style></defs><path class="cls-1" d="M166.31,51.47S133.94,52,100,26.2c0,0-32.54,25.54-66.51,25,0,0-3.18,9.53-1.66,24S48.48,155.67,98,173.44a6.26,6.26,0,0,0,2.65.34,7.19,7.19,0,0,0,1.45-.3c1.41-.5,51.46-13.32,65.64-96.53,0,0,2.69-19.45-1.39-25.5Zm-2.78,26.92c-13.31,78.1-60.29,90.12-61.61,90.59a6.25,6.25,0,0,1-1.35.29,5.82,5.82,0,0,1-2.49-.31C51.64,152.26,37.44,90.26,36,76.74S37.6,54.2,37.6,54.2C69.47,54.72,100,30.75,100,30.75c31.83,24.15,62.29,23.7,62.29,23.7,3.82,5.67,1.29,23.94,1.29,23.94Z"/></svg>